<?xml version="1.0" encoding="UTF-8"?>
<svg id="Layer_1" data-name="Layer 1" xmlns="http://www.w3.org/2000/svg" viewBox="0 0 288.85 288.85">
  <defs>
    <style>
      .cls-1 {
        fill: #ed1c24;
      }

      .cls-2 {
        fill: #b3b3b3;
      }
    </style>
  </defs>
  <path class="cls-1" d="M188.52,66.74l-24.28,31.18-67.05.19c-56.61,6.5-56.95,85.67-.38,92.58h55.1s0-33.37,0-33.37h-54.91c6.15-8.85,13.48-16.95,19.5-25.82h66.84v90.59l-93.32.02c-45.74-3.2-78.95-43.95-72.13-89.54,5.47-36.59,38.09-65.54,75.37-65.41l.96-.41h94.3Z"/>
  <path class="cls-2" d="M263.72,191.1c.17,1.77.17,4.98,0,6.75-.72,7.5-5.07,17.45-11.66,21.53-1.29.8-5.5,2.7-6.84,2.7h-52.72l12.2-17.02,35.76-.05c9.29-.57,10.83-15.31,3.9-19.82-.35-.23-2.55-1.26-2.72-1.26h-34.42l12.02-17c6.62-.71,14.32.65,20.81-.09,5.7-.65,7.55-8.24,5.85-13-.6-1.68-3.12-5.28-5.06-5.28h-41.18l12.62-17,31.35-.08c18.37,3.88,21.69,28.4,13.76,42.71,1.17,2.49,2.84,4.66,3.86,7.24,1.01,2.55,2.23,6.97,2.48,9.64Z"/>
</svg>